<?xml version="1.0" standalone="no"?>
<svg xmlns="http://www.w3.org/2000/svg" version="1.2" baseProfile="tiny" width="256" height="160" viewBox="0 0 256 160">
<rect x="0" y="0" width="256" height="160" id="0" fill="rgb(152,174,197)" fill-opacity="1" />
<ellipse cx="45" cy="156" rx="55" ry="30" id="1" fill="rgb(7,61,112)" fill-opacity="0.501961" />
<g transform="translate(111 12) rotate(273) scale(23 46)"><ellipse cx="0" cy="0" rx="1" ry="1" id="2" fill="rgb(255,255,255)" fill-opacity="0.501961" /></g>
<g transform="translate(199 142) rotate(91) scale(35 64)"><ellipse cx="0" cy="0" rx="1" ry="1" id="3" fill="rgb(236,249,255)" fill-opacity="0.501961" /></g>
<g transform="translate(220 91) rotate(0) scale(35 11)"><ellipse cx="0" cy="0" rx="1" ry="1" id="4" fill="rgb(0,43,74)" fill-opacity="0.501961" /></g>
<ellipse cx="37" cy="64" rx="26" ry="12" id="5" fill="rgb(66,76,102)" fill-opacity="0.501961" />
<g transform="translate(123 124) rotate(65) scale(10 23)"><ellipse cx="0" cy="0" rx="1" ry="1" id="6" fill="rgb(5,54,95)" fill-opacity="0.501961" /></g>
<circle cx="155" cy="97" r="19" id="7" fill="rgb(239,251,243)" fill-opacity="0.501961" />
<ellipse cx="117" cy="8" rx="38" ry="23" id="8" fill="rgb(255,255,255)" fill-opacity="0.501961" />
<g transform="translate(235 5) rotate(47) scale(15 17)"><ellipse cx="0" cy="0" rx="1" ry="1" id="9" fill="rgb(35,71,127)" fill-opacity="0.501961" /></g>
<ellipse cx="113" cy="69" rx="18" ry="22" id="10" fill="rgb(78,107,143)" fill-opacity="0.501961" />
<circle cx="26" cy="64" r="8" id="11" fill="rgb(0,0,0)" fill-opacity="0.501961" />
<ellipse cx="205" cy="93" rx="24" ry="16" id="12" fill="rgb(73,116,129)" fill-opacity="0.501961" />
<g transform="translate(60 23) rotate(36) scale(22 18)"><ellipse cx="0" cy="0" rx="1" ry="1" id="13" fill="rgb(89,114,149)" fill-opacity="0.501961" /></g>
<g transform="translate(72 150) rotate(51) scale(17 66)"><ellipse cx="0" cy="0" rx="1" ry="1" id="14" fill="rgb(96,133,161)" fill-opacity="0.501961" /></g>
<circle cx="15" cy="101" r="26" id="15" fill="rgb(201,221,234)" fill-opacity="0.501961" />
<g transform="translate(229 77) rotate(279) scale(5 37)"><ellipse cx="0" cy="0" rx="1" ry="1" id="16" fill="rgb(246,255,255)" fill-opacity="0.501961" /></g>
<g transform="translate(129 154) rotate(181) scale(30 16)"><ellipse cx="0" cy="0" rx="1" ry="1" id="17" fill="rgb(183,220,241)" fill-opacity="0.501961" /></g>
<ellipse cx="237" cy="159" rx="59" ry="4" id="18" fill="rgb(102,94,90)" fill-opacity="0.501961" />
<g transform="translate(54 79) rotate(244) scale(29 20)"><ellipse cx="0" cy="0" rx="1" ry="1" id="19" fill="rgb(161,179,197)" fill-opacity="0.501961" /></g>
<ellipse cx="131" cy="99" rx="26" ry="7" id="20" fill="rgb(236,246,242)" fill-opacity="0.501961" />
<circle cx="240" cy="111" r="16" id="21" fill="rgb(192,215,243)" fill-opacity="0.501961" />
<ellipse cx="58" cy="112" rx="39" ry="6" id="22" fill="rgb(224,239,242)" fill-opacity="0.501961" />
<circle cx="182" cy="76" r="26" id="23" fill="rgb(174,193,200)" fill-opacity="0.501961" />
<g transform="translate(163 0) rotate(13) scale(22 10)"><ellipse cx="0" cy="0" rx="1" ry="1" id="24" fill="rgb(243,245,251)" fill-opacity="0.501961" /></g>
<g transform="translate(205 14) rotate(239) scale(21 17)"><ellipse cx="0" cy="0" rx="1" ry="1" id="25" fill="rgb(112,140,178)" fill-opacity="0.501961" /></g>
<g transform="translate(153 15) rotate(309) scale(27 9)"><ellipse cx="0" cy="0" rx="1" ry="1" id="26" fill="rgb(158,177,204)" fill-opacity="0.501961" /></g>
<g transform="translate(20 98) rotate(177) scale(30 10)"><ellipse cx="0" cy="0" rx="1" ry="1" id="27" fill="rgb(125,158,183)" fill-opacity="0.501961" /></g>
<ellipse cx="232" cy="61" rx="23" ry="9" id="28" fill="rgb(104,122,152)" fill-opacity="0.501961" />
<ellipse cx="235" cy="90" rx="17" ry="6" id="29" fill="rgb(0,11,66)" fill-opacity="0.501961" />
<circle cx="77" cy="75" r="8" id="30" fill="rgb(248,248,255)" fill-opacity="0.501961" />
<ellipse cx="212" cy="101" rx="10" ry="6" id="31" fill="rgb(0,23,63)" fill-opacity="0.501961" />
<g transform="translate(79 133) rotate(109) scale(15 28)"><ellipse cx="0" cy="0" rx="1" ry="1" id="32" fill="rgb(119,152,177)" fill-opacity="0.501961" /></g>
<g transform="translate(143 54) rotate(347) scale(26 8)"><ellipse cx="0" cy="0" rx="1" ry="1" id="33" fill="rgb(98,121,157)" fill-opacity="0.501961" /></g>
<g transform="translate(12 82) rotate(247) scale(3 28)"><ellipse cx="0" cy="0" rx="1" ry="1" id="34" fill="rgb(255,255,255)" fill-opacity="0.501961" /></g>
<g transform="translate(198 132) rotate(242) scale(22 30)"><ellipse cx="0" cy="0" rx="1" ry="1" id="35" fill="rgb(219,230,246)" fill-opacity="0.501961" /></g>
<g transform="translate(252 21) rotate(346) scale(11 18)"><ellipse cx="0" cy="0" rx="1" ry="1" id="36" fill="rgb(136,164,205)" fill-opacity="0.501961" /></g>
<ellipse cx="95" cy="0" rx="35" ry="17" id="37" fill="rgb(255,255,255)" fill-opacity="0.501961" />
<circle cx="47" cy="74" r="9" id="38" fill="rgb(48,62,91)" fill-opacity="0.501961" />
<ellipse cx="77" cy="51" rx="29" ry="23" id="39" fill="rgb(155,173,200)" fill-opacity="0.501961" />
<g transform="translate(115 17) rotate(60) scale(13 31)"><ellipse cx="0" cy="0" rx="1" ry="1" id="40" fill="rgb(255,255,255)" fill-opacity="0.501961" /></g>
<g transform="translate(55 21) rotate(208) scale(11 8)"><ellipse cx="0" cy="0" rx="1" ry="1" id="41" fill="rgb(55,86,129)" fill-opacity="0.501961" /></g>
<ellipse cx="137" cy="149" rx="30" ry="17" id="42" fill="rgb(177,206,225)" fill-opacity="0.501961" />
<circle cx="131" cy="125" r="9" id="43" fill="rgb(36,74,115)" fill-opacity="0.501961" />
<circle cx="190" cy="67" r="4" id="44" fill="rgb(17,18,34)" fill-opacity="0.501961" />
<g transform="translate(25 121) rotate(257) scale(10 27)"><ellipse cx="0" cy="0" rx="1" ry="1" id="45" fill="rgb(186,206,224)" fill-opacity="0.501961" /></g>
<ellipse cx="18" cy="59" rx="6" ry="4" id="46" fill="rgb(0,0,39)" fill-opacity="0.501961" />
<g transform="translate(103 81) rotate(343) scale(23 3)"><ellipse cx="0" cy="0" rx="1" ry="1" id="47" fill="rgb(62,102,149)" fill-opacity="0.501961" /></g>
<ellipse cx="229" cy="72" rx="79" ry="3" id="48" fill="rgb(234,240,254)" fill-opacity="0.501961" />
<g transform="translate(15 148) rotate(68) scale(11 39)"><ellipse cx="0" cy="0" rx="1" ry="1" id="49" fill="rgb(44,86,134)" fill-opacity="0.501961" /></g>
<ellipse cx="0" cy="30" rx="7" ry="28" id="50" fill="rgb(85,116,164)" fill-opacity="0.501961" />
<g transform="translate(154 68) rotate(280) scale(2 22)"><ellipse cx="0" cy="0" rx="1" ry="1" id="51" fill="rgb(255,255,255)" fill-opacity="0.501961" /></g>
<ellipse cx="78" cy="37" rx="12" ry="21" id="52" fill="rgb(155,174,198)" fill-opacity="0.501961" />
<g transform="translate(119 43) rotate(64) scale(9 20)"><ellipse cx="0" cy="0" rx="1" ry="1" id="53" fill="rgb(113,132,160)" fill-opacity="0.501961" /></g>
<g transform="translate(119 115) rotate(355) scale(33 6)"><ellipse cx="0" cy="0" rx="1" ry="1" id="54" fill="rgb(97,130,153)" fill-opacity="0.501961" /></g>
<circle cx="202" cy="47" r="18" id="55" fill="rgb(174,190,217)" fill-opacity="0.501961" />
<ellipse cx="51" cy="44" rx="2" ry="13" id="56" fill="rgb(56,72,105)" fill-opacity="0.501961" />
<ellipse cx="7" cy="108" rx="26" ry="15" id="57" fill="rgb(191,211,223)" fill-opacity="0.501961" />
<g transform="translate(230 105) rotate(360) scale(10 5)"><ellipse cx="0" cy="0" rx="1" ry="1" id="58" fill="rgb(102,153,189)" fill-opacity="0.501961" /></g>
<g transform="translate(44 53) rotate(287) scale(13 7)"><ellipse cx="0" cy="0" rx="1" ry="1" id="59" fill="rgb(172,193,220)" fill-opacity="0.501961" /></g>
<ellipse cx="26" cy="86" rx="43" ry="2" id="60" fill="rgb(255,255,255)" fill-opacity="0.501961" />
<ellipse cx="39" cy="81" rx="7" ry="3" id="61" fill="rgb(0,9,48)" fill-opacity="0.501961" />
<ellipse cx="220" cy="53" rx="9" ry="4" id="62" fill="rgb(65,89,120)" fill-opacity="0.501961" />
<ellipse cx="103" cy="70" rx="20" ry="4" id="63" fill="rgb(41,80,133)" fill-opacity="0.501961" />
<ellipse cx="68" cy="82" rx="13" ry="4" id="64" fill="rgb(255,255,255)" fill-opacity="0.501961" />
<ellipse cx="189" cy="92" rx="14" ry="18" id="65" fill="rgb(123,159,159)" fill-opacity="0.501961" />
<ellipse cx="108" cy="97" rx="14" ry="12" id="66" fill="rgb(176,199,203)" fill-opacity="0.501961" />
<ellipse cx="131" cy="55" rx="6" ry="27" id="67" fill="rgb(157,178,201)" fill-opacity="0.501961" />
<circle cx="234" cy="13" r="6" id="68" fill="rgb(19,48,91)" fill-opacity="0.501961" />
<circle cx="225" cy="64" r="3" id="69" fill="rgb(11,15,34)" fill-opacity="0.501961" />
<g transform="translate(35 17) rotate(139) scale(10 7)"><ellipse cx="0" cy="0" rx="1" ry="1" id="70" fill="rgb(174,192,227)" fill-opacity="0.501961" /></g>
<circle cx="251" cy="111" r="16" id="71" fill="rgb(186,204,231)" fill-opacity="0.501961" />
<g transform="translate(32 73) rotate(131) scale(18 3)"><ellipse cx="0" cy="0" rx="1" ry="1" id="72" fill="rgb(230,238,255)" fill-opacity="0.501961" /></g>
<ellipse cx="246" cy="59" rx="23" ry="5" id="73" fill="rgb(160,184,216)" fill-opacity="0.501961" />
<ellipse cx="239" cy="27" rx="3" ry="3" id="74" fill="rgb(4,19,60)" fill-opacity="0.501961" />
<ellipse cx="167" cy="45" rx="26" ry="16" id="75" fill="rgb(132,154,186)" fill-opacity="0.501961" />
<g transform="translate(23 40) rotate(134) scale(8 19)"><ellipse cx="0" cy="0" rx="1" ry="1" id="76" fill="rgb(175,193,223)" fill-opacity="0.501961" /></g>
<g transform="translate(233 43) rotate(131) scale(12 8)"><ellipse cx="0" cy="0" rx="1" ry="1" id="77" fill="rgb(183,202,232)" fill-opacity="0.501961" /></g>
<g transform="translate(145 159) rotate(207) scale(9 34)"><ellipse cx="0" cy="0" rx="1" ry="1" id="78" fill="rgb(159,189,209)" fill-opacity="0.501961" /></g>
<circle cx="7" cy="27" r="15" id="79" fill="rgb(124,152,191)" fill-opacity="0.501961" />
<ellipse cx="61" cy="53" rx="14" ry="4" id="80" fill="rgb(104,131,166)" fill-opacity="0.501961" />
<ellipse cx="194" cy="70" rx="4" ry="1" id="81" fill="rgb(4,13,26)" fill-opacity="0.501961" />
<g transform="translate(255 50) rotate(226) scale(7 12)"><ellipse cx="0" cy="0" rx="1" ry="1" id="82" fill="rgb(94,123,167)" fill-opacity="0.501961" /></g>
<g transform="translate(121 77) rotate(158) scale(11 13)"><ellipse cx="0" cy="0" rx="1" ry="1" id="83" fill="rgb(130,160,183)" fill-opacity="0.501961" /></g>
<g transform="translate(125 145) rotate(69) scale(9 21)"><ellipse cx="0" cy="0" rx="1" ry="1" id="84" fill="rgb(193,221,239)" fill-opacity="0.501961" /></g>
<circle cx="47" cy="84" r="4" id="85" fill="rgb(246,252,255)" fill-opacity="0.501961" />
<g transform="translate(50 131) rotate(339) scale(23 5)"><ellipse cx="0" cy="0" rx="1" ry="1" id="86" fill="rgb(67,105,144)" fill-opacity="0.501961" /></g>
<g transform="translate(90 63) rotate(170) scale(42 1)"><ellipse cx="0" cy="0" rx="1" ry="1" id="87" fill="rgb(185,195,207)" fill-opacity="0.501961" /></g>
<g transform="translate(81 125) rotate(242) scale(6 31)"><ellipse cx="0" cy="0" rx="1" ry="1" id="88" fill="rgb(141,169,192)" fill-opacity="0.501961" /></g>
<ellipse cx="53" cy="157" rx="45" ry="6" id="89" fill="rgb(53,94,139)" fill-opacity="0.501961" />
<g transform="translate(121 60) rotate(195) scale(6 2)"><ellipse cx="0" cy="0" rx="1" ry="1" id="90" fill="rgb(19,33,61)" fill-opacity="0.501961" /></g>
<circle cx="75" cy="24" r="10" id="91" fill="rgb(130,150,172)" fill-opacity="0.501961" />
<ellipse cx="252" cy="64" rx="45" ry="3" id="92" fill="rgb(83,99,122)" fill-opacity="0.501961" />
<ellipse cx="163" cy="118" rx="15" ry="38" id="93" fill="rgb(195,217,227)" fill-opacity="0.501961" />
<ellipse cx="98" cy="46" rx="34" ry="2" id="94" fill="rgb(198,210,223)" fill-opacity="0.501961" />
<ellipse cx="207" cy="87" rx="18" ry="10" id="95" fill="rgb(83,120,145)" fill-opacity="0.501961" />
<g transform="translate(9 127) rotate(86) scale(3 14)"><ellipse cx="0" cy="0" rx="1" ry="1" id="96" fill="rgb(121,155,189)" fill-opacity="0.501961" /></g>
<circle cx="194" cy="59" r="8" id="97" fill="rgb(212,224,239)" fill-opacity="0.501961" />
<g transform="translate(248 0) rotate(261) scale(6 23)"><ellipse cx="0" cy="0" rx="1" ry="1" id="98" fill="rgb(65,101,149)" fill-opacity="0.501961" /></g>
<circle cx="32" cy="60" r="6" id="99" fill="rgb(13,28,63)" fill-opacity="0.501961" />
<ellipse cx="88" cy="75" rx="8" ry="2" id="100" fill="rgb(255,255,255)" fill-opacity="0.501961" />
<g transform="translate(72 9) rotate(132) scale(10 6)"><ellipse cx="0" cy="0" rx="1" ry="1" id="101" fill="rgb(228,232,234)" fill-opacity="0.501961" /></g>
<ellipse cx="114" cy="40" rx="14" ry="4" id="102" fill="rgb(89,117,152)" fill-opacity="0.501961" />
<g transform="translate(178 82) rotate(287) scale(5 31)"><ellipse cx="0" cy="0" rx="1" ry="1" id="103" fill="rgb(142,170,182)" fill-opacity="0.501961" /></g>
<g transform="translate(255 19) rotate(346) scale(16 1)"><ellipse cx="0" cy="0" rx="1" ry="1" id="104" fill="rgb(49,78,117)" fill-opacity="0.501961" /></g>
<ellipse cx="26" cy="47" rx="11" ry="5" id="105" fill="rgb(221,230,245)" fill-opacity="0.501961" />
<ellipse cx="61" cy="74" rx="12" ry="5" id="106" fill="rgb(92,109,137)" fill-opacity="0.501961" />
<ellipse cx="255" cy="82" rx="14" ry="7" id="107" fill="rgb(169,198,236)" fill-opacity="0.501961" />
<ellipse cx="224" cy="84" rx="12" ry="3" id="108" fill="rgb(0,34,87)" fill-opacity="0.501961" />
<ellipse cx="83" cy="109" rx="23" ry="4" id="109" fill="rgb(204,220,227)" fill-opacity="0.501961" />
<circle cx="15" cy="52" r="4" id="110" fill="rgb(216,227,247)" fill-opacity="0.501961" />
<circle cx="242" cy="12" r="3" id="111" fill="rgb(199,219,242)" fill-opacity="0.501961" />
<ellipse cx="2" cy="67" rx="7" ry="8" id="112" fill="rgb(196,206,227)" fill-opacity="0.501961" />
<circle cx="248" cy="69" r="9" id="113" fill="rgb(183,202,227)" fill-opacity="0.501961" />
<ellipse cx="227" cy="68" rx="12" ry="2" id="114" fill="rgb(217,225,235)" fill-opacity="0.501961" />
<ellipse cx="185" cy="119" rx="18" ry="7" id="115" fill="rgb(234,244,250)" fill-opacity="0.501961" />
<ellipse cx="138" cy="65" rx="29" ry="2" id="116" fill="rgb(209,218,229)" fill-opacity="0.501961" />
<g transform="translate(44 90) rotate(267) scale(1 57)"><ellipse cx="0" cy="0" rx="1" ry="1" id="117" fill="rgb(85,126,163)" fill-opacity="0.501961" /></g>
<circle cx="53" cy="4" r="6" id="118" fill="rgb(88,106,134)" fill-opacity="0.501961" />
<circle cx="254" cy="92" r="3" id="119" fill="rgb(0,0,14)" fill-opacity="0.501961" />
<circle cx="22" cy="69" r="5" id="120" fill="rgb(0,6,34)" fill-opacity="0.501961" />
<ellipse cx="36" cy="0" rx="16" ry="6" id="121" fill="rgb(192,207,234)" fill-opacity="0.501961" />
<circle cx="183" cy="66" r="1" id="122" fill="rgb(0,0,0)" fill-opacity="0.501961" />
<ellipse cx="175" cy="156" rx="11" ry="34" id="123" fill="rgb(195,214,230)" fill-opacity="0.501961" />
<circle cx="166" cy="66" r="3" id="124" fill="rgb(93,104,122)" fill-opacity="0.501961" />
<g transform="translate(104 60) rotate(98) scale(1 5)"><ellipse cx="0" cy="0" rx="1" ry="1" id="125" fill="rgb(247,247,253)" fill-opacity="0.501961" /></g>
<circle cx="59" cy="68" r="8" id="126" fill="rgb(165,185,209)" fill-opacity="0.501961" />
<ellipse cx="254" cy="93" rx="20" ry="2" id="127" fill="rgb(0,0,39)" fill-opacity="0.501961" />
<circle cx="209" cy="34" r="5" id="128" fill="rgb(101,127,156)" fill-opacity="0.501961" />
<circle cx="217" cy="4" r="9" id="129" fill="rgb(134,164,200)" fill-opacity="0.501961" />
<g transform="translate(81 79) rotate(269) scale(1 17)"><ellipse cx="0" cy="0" rx="1" ry="1" id="130" fill="rgb(233,244,255)" fill-opacity="0.501961" /></g>
<circle cx="176" cy="0" r="8" id="131" fill="rgb(255,255,255)" fill-opacity="0.501961" />
<g transform="translate(28 36) rotate(165) scale(28 4)"><ellipse cx="0" cy="0" rx="1" ry="1" id="132" fill="rgb(152,174,206)" fill-opacity="0.501961" /></g>
<g transform="translate(14 82) rotate(358) scale(16 5)"><ellipse cx="0" cy="0" rx="1" ry="1" id="133" fill="rgb(226,233,251)" fill-opacity="0.501961" /></g>
<g transform="translate(234 139) rotate(0) scale(34 15)"><ellipse cx="0" cy="0" rx="1" ry="1" id="134" fill="rgb(199,214,239)" fill-opacity="0.501961" /></g>
<g transform="translate(5 142) rotate(159) scale(16 7)"><ellipse cx="0" cy="0" rx="1" ry="1" id="135" fill="rgb(89,131,167)" fill-opacity="0.501961" /></g>
<g transform="translate(48 37) rotate(160) scale(10 2)"><ellipse cx="0" cy="0" rx="1" ry="1" id="136" fill="rgb(74,95,130)" fill-opacity="0.501961" /></g>
<g transform="translate(38 65) rotate(190) scale(3 13)"><ellipse cx="0" cy="0" rx="1" ry="1" id="137" fill="rgb(188,204,221)" fill-opacity="0.501961" /></g>
<ellipse cx="55" cy="84" rx="15" ry="2" id="138" fill="rgb(255,255,255)" fill-opacity="0.501961" />
<ellipse cx="164" cy="10" rx="2" ry="25" id="139" fill="rgb(120,143,178)" fill-opacity="0.501961" />
<g transform="translate(132 46) rotate(23) scale(2 16)"><ellipse cx="0" cy="0" rx="1" ry="1" id="140" fill="rgb(181,194,215)" fill-opacity="0.501961" /></g>
<circle cx="44" cy="70" r="3" id="141" fill="rgb(0,0,0)" fill-opacity="0.501961" />
<g transform="translate(80 48) rotate(5) scale(13 22)"><ellipse cx="0" cy="0" rx="1" ry="1" id="142" fill="rgb(161,181,206)" fill-opacity="0.501961" /></g>
<ellipse cx="187" cy="73" rx="15" ry="3" id="143" fill="rgb(250,254,255)" fill-opacity="0.501961" />
<ellipse cx="157" cy="50" rx="5" ry="10" id="144" fill="rgb(88,112,147)" fill-opacity="0.501961" />
<ellipse cx="211" cy="34" rx="38" ry="3" id="145" fill="rgb(171,191,219)" fill-opacity="0.501961" />
<ellipse cx="247" cy="20" rx="11" ry="3" id="146" fill="rgb(78,107,146)" fill-opacity="0.501961" />
<circle cx="0" cy="15" r="4" id="147" fill="rgb(42,71,118)" fill-opacity="0.501961" />
<circle cx="217" cy="26" r="4" id="148" fill="rgb(66,92,131)" fill-opacity="0.501961" />
<ellipse cx="240" cy="105" rx="7" ry="10" id="149" fill="rgb(169,193,217)" fill-opacity="0.501961" />
<circle cx="247" cy="10" r="6" id="150" fill="rgb(167,190,221)" fill-opacity="0.501961" />
<g transform="translate(201 39) rotate(110) scale(2 18)"><ellipse cx="0" cy="0" rx="1" ry="1" id="151" fill="rgb(192,207,228)" fill-opacity="0.501961" /></g>
<circle cx="41" cy="75" r="3" id="152" fill="rgb(182,201,224)" fill-opacity="0.501961" />
<circle cx="228" cy="64" r="3" id="153" fill="rgb(22,30,46)" fill-opacity="0.501961" />
<ellipse cx="120" cy="62" rx="17" ry="2" id="154" fill="rgb(65,101,146)" fill-opacity="0.501961" />
<ellipse cx="171" cy="50" rx="11" ry="9" id="155" fill="rgb(163,185,210)" fill-opacity="0.501961" />
<ellipse cx="132" cy="159" rx="20" ry="12" id="156" fill="rgb(152,187,216)" fill-opacity="0.501961" />
<ellipse cx="43" cy="115" rx="22" ry="7" id="157" fill="rgb(202,218,228)" fill-opacity="0.501961" />
<g transform="translate(126 98) rotate(70) scale(3 43)"><ellipse cx="0" cy="0" rx="1" ry="1" id="158" fill="rgb(210,223,229)" fill-opacity="0.501961" /></g>
<circle cx="148" cy="123" r="7" id="159" fill="rgb(199,226,242)" fill-opacity="0.501961" />
<ellipse cx="2" cy="66" rx="17" ry="7" id="160" fill="rgb(160,181,213)" fill-opacity="0.501961" />
<circle cx="148" cy="0" r="8" id="161" fill="rgb(255,255,255)" fill-opacity="0.501961" />
<ellipse cx="173" cy="22" rx="2" ry="8" id="162" fill="rgb(93,117,153)" fill-opacity="0.501961" />
<circle cx="205" cy="86" r="10" id="163" fill="rgb(92,129,147)" fill-opacity="0.501961" />
<g transform="translate(111 53) rotate(247) scale(4 6)"><ellipse cx="0" cy="0" rx="1" ry="1" id="164" fill="rgb(76,94,121)" fill-opacity="0.501961" /></g>
<ellipse cx="222" cy="52" rx="2" ry="3" id="165" fill="rgb(0,0,11)" fill-opacity="0.501961" />
<g transform="translate(122 52) rotate(350) scale(5 2)"><ellipse cx="0" cy="0" rx="1" ry="1" id="166" fill="rgb(50,76,114)" fill-opacity="0.501961" /></g>
<ellipse cx="218" cy="46" rx="3" ry="18" id="167" fill="rgb(163,186,212)" fill-opacity="0.501961" />
<g transform="translate(104 136) rotate(296) scale(19 3)"><ellipse cx="0" cy="0" rx="1" ry="1" id="168" fill="rgb(91,129,158)" fill-opacity="0.501961" /></g>
<circle cx="236" cy="59" r="5" id="169" fill="rgb(190,208,234)" fill-opacity="0.501961" />
<circle cx="52" cy="75" r="4" id="170" fill="rgb(33,50,80)" fill-opacity="0.501961" />
<ellipse cx="27" cy="90" rx="31" ry="2" id="171" fill="rgb(83,124,163)" fill-opacity="0.501961" />
<ellipse cx="61" cy="73" rx="10" ry="2" id="172" fill="rgb(189,207,230)" fill-opacity="0.501961" />
<circle cx="172" cy="89" r="8" id="173" fill="rgb(178,200,197)" fill-opacity="0.501961" />
<circle cx="22" cy="55" r="3" id="174" fill="rgb(47,66,93)" fill-opacity="0.501961" />
<g transform="translate(254 49) rotate(315) scale(25 1)"><ellipse cx="0" cy="0" rx="1" ry="1" id="175" fill="rgb(79,99,130)" fill-opacity="0.501961" /></g>
<g transform="translate(15 59) rotate(225) scale(1 10)"><ellipse cx="0" cy="0" rx="1" ry="1" id="176" fill="rgb(56,84,122)" fill-opacity="0.501961" /></g>
<ellipse cx="155" cy="131" rx="17" ry="5" id="177" fill="rgb(159,193,217)" fill-opacity="0.501961" />
<g transform="translate(72 16) rotate(128) scale(9 3)"><ellipse cx="0" cy="0" rx="1" ry="1" id="178" fill="rgb(147,165,183)" fill-opacity="0.501961" /></g>
<g transform="translate(146 64) rotate(84) scale(1 22)"><ellipse cx="0" cy="0" rx="1" ry="1" id="179" fill="rgb(204,214,230)" fill-opacity="0.501961" /></g>
<circle cx="246" cy="50" r="6" id="180" fill="rgb(162,185,219)" fill-opacity="0.501961" />
<g transform="translate(102 8) rotate(123) scale(17 32)"><ellipse cx="0" cy="0" rx="1" ry="1" id="181" fill="rgb(249,250,255)" fill-opacity="0.501961" /></g>
<g transform="translate(8 106) rotate(172) scale(43 2)"><ellipse cx="0" cy="0" rx="1" ry="1" id="182" fill="rgb(127,158,179)" fill-opacity="0.501961" /></g>
<ellipse cx="46" cy="79" rx="3" ry="4" id="183" fill="rgb(189,207,228)" fill-opacity="0.501961" />
<circle cx="219" cy="42" r="1" id="184" fill="rgb(1,16,25)" fill-opacity="0.501961" />
<ellipse cx="218" cy="106" rx="3" ry="3" id="185" fill="rgb(0,45,89)" fill-opacity="0.501961" />
<circle cx="81" cy="95" r="11" id="186" fill="rgb(153,182,192)" fill-opacity="0.501961" />
<ellipse cx="214" cy="17" rx="4" ry="8" id="187" fill="rgb(162,184,212)" fill-opacity="0.501961" />
<ellipse cx="145" cy="98" rx="22" ry="9" id="188" fill="rgb(215,226,231)" fill-opacity="0.501961" />
<circle cx="160" cy="43" r="8" id="189" fill="rgb(110,137,171)" fill-opacity="0.501961" />
<ellipse cx="211" cy="66" rx="2" ry="2" id="190" fill="rgb(0,0,0)" fill-opacity="0.501961" />
<circle cx="83" cy="35" r="8" id="191" fill="rgb(184,198,217)" fill-opacity="0.501961" />
<ellipse cx="188" cy="79" rx="20" ry="2" id="192" fill="rgb(79,114,148)" fill-opacity="0.501961" />
<circle cx="52" cy="22" r="2" id="193" fill="rgb(200,224,246)" fill-opacity="0.501961" />
<ellipse cx="247" cy="98" rx="13" ry="3" id="194" fill="rgb(213,229,250)" fill-opacity="0.501961" />
<ellipse cx="134" cy="113" rx="18" ry="3" id="195" fill="rgb(92,126,153)" fill-opacity="0.501961" />
<g transform="translate(10 75) rotate(62) scale(1 6)"><ellipse cx="0" cy="0" rx="1" ry="1" id="196" fill="rgb(23,30,41)" fill-opacity="0.501961" /></g>
<circle cx="39" cy="61" r="1" id="197" fill="rgb(0,1,35)" fill-opacity="0.501961" />
<ellipse cx="213" cy="101" rx="7" ry="4" id="198" fill="rgb(0,33,68)" fill-opacity="0.501961" />
<circle cx="49" cy="12" r="1" id="199" fill="rgb(245,255,255)" fill-opacity="0.501961" />
<circle cx="46" cy="7" r="3" id="200" fill="rgb(36,64,104)" fill-opacity="0.501961" />
<circle cx="49" cy="80" r="2" id="201" fill="rgb(31,46,69)" fill-opacity="0.501961" />
<circle cx="186" cy="66" r="3" id="202" fill="rgb(37,43,58)" fill-opacity="0.501961" />
<g transform="translate(24 34) rotate(263) scale(2 36)"><ellipse cx="0" cy="0" rx="1" ry="1" id="203" fill="rgb(163,184,212)" fill-opacity="0.501961" /></g>
<circle cx="221" cy="73" r="8" id="204" fill="rgb(207,221,243)" fill-opacity="0.501961" />
<circle cx="20" cy="58" r="4" id="205" fill="rgb(5,19,46)" fill-opacity="0.501961" />
<ellipse cx="244" cy="158" rx="57" ry="1" id="206" fill="rgb(92,95,97)" fill-opacity="0.501961" />
<circle cx="87" cy="83" r="3" id="207" fill="rgb(29,69,119)" fill-opacity="0.501961" />
<circle cx="237" cy="89" r="6" id="208" fill="rgb(0,34,81)" fill-opacity="0.501961" />
<g transform="translate(247 38) rotate(304) scale(3 44)"><ellipse cx="0" cy="0" rx="1" ry="1" id="209" fill="rgb(146,170,207)" fill-opacity="0.501961" /></g>
<ellipse cx="236" cy="70" rx="7" ry="3" id="210" fill="rgb(134,148,165)" fill-opacity="0.501961" />
<ellipse cx="21" cy="27" rx="1" ry="4" id="211" fill="rgb(23,54,88)" fill-opacity="0.501961" />
<ellipse cx="198" cy="14" rx="10" ry="6" id="212" fill="rgb(104,131,165)" fill-opacity="0.501961" />
<circle cx="203" cy="68" r="7" id="213" fill="rgb(211,221,238)" fill-opacity="0.501961" />
<g transform="translate(206 37) rotate(216) scale(4 2)"><ellipse cx="0" cy="0" rx="1" ry="1" id="214" fill="rgb(79,101,130)" fill-opacity="0.501961" /></g>
<circle cx="231" cy="25" r="7" id="215" fill="rgb(152,175,210)" fill-opacity="0.501961" />
<ellipse cx="233" cy="75" rx="62" ry="3" id="216" fill="rgb(214,226,245)" fill-opacity="0.501961" />
<ellipse cx="191" cy="50" rx="11" ry="7" id="217" fill="rgb(144,165,190)" fill-opacity="0.501961" />
<circle cx="62" cy="0" r="4" id="218" fill="rgb(255,255,255)" fill-opacity="0.501961" />
<ellipse cx="211" cy="116" rx="32" ry="7" id="219" fill="rgb(222,232,244)" fill-opacity="0.501961" />
<ellipse cx="124" cy="130" rx="17" ry="3" id="220" fill="rgb(47,87,127)" fill-opacity="0.501961" />
<g transform="translate(163 14) rotate(262) scale(3 22)"><ellipse cx="0" cy="0" rx="1" ry="1" id="221" fill="rgb(182,196,215)" fill-opacity="0.501961" /></g>
<ellipse cx="88" cy="70" rx="7" ry="3" id="222" fill="rgb(59,93,133)" fill-opacity="0.501961" />
<circle cx="4" cy="67" r="2" id="223" fill="rgb(0,14,45)" fill-opacity="0.501961" />
<g transform="translate(30 66) rotate(223) scale(2 7)"><ellipse cx="0" cy="0" rx="1" ry="1" id="224" fill="rgb(0,0,8)" fill-opacity="0.501961" /></g>
<circle cx="54" cy="77" r="3" id="225" fill="rgb(11,23,53)" fill-opacity="0.501961" />
<circle cx="77" cy="18" r="2" id="226" fill="rgb(9,31,65)" fill-opacity="0.501961" />
<circle cx="190" cy="49" r="3" id="227" fill="rgb(71,94,126)" fill-opacity="0.501961" />
<ellipse cx="230" cy="66" rx="17" ry="1" id="228" fill="rgb(58,69,87)" fill-opacity="0.501961" />
<g transform="translate(161 76) rotate(273) scale(1 12)"><ellipse cx="0" cy="0" rx="1" ry="1" id="229" fill="rgb(81,111,149)" fill-opacity="0.501961" /></g>
<circle cx="47" cy="62" r="2" id="230" fill="rgb(2,21,52)" fill-opacity="0.501961" />
<ellipse cx="194" cy="68" rx="2" ry="2" id="231" fill="rgb(0,0,0)" fill-opacity="0.501961" />
<g transform="translate(65 11) rotate(0) scale(22 1)"><ellipse cx="0" cy="0" rx="1" ry="1" id="232" fill="rgb(222,230,238)" fill-opacity="0.501961" /></g>
<ellipse cx="197" cy="157" rx="12" ry="2" id="233" fill="rgb(137,134,129)" fill-opacity="0.501961" />
<ellipse cx="156" cy="83" rx="20" ry="8" id="234" fill="rgb(184,204,211)" fill-opacity="0.501961" />
<g transform="translate(217 84) rotate(287) scale(3 15)"><ellipse cx="0" cy="0" rx="1" ry="1" id="235" fill="rgb(36,78,119)" fill-opacity="0.501961" /></g>
<circle cx="24" cy="53" r="2" id="236" fill="rgb(213,230,253)" fill-opacity="0.501961" />
<g transform="translate(195 41) rotate(154) scale(7 12)"><ellipse cx="0" cy="0" rx="1" ry="1" id="237" fill="rgb(184,201,223)" fill-opacity="0.501961" /></g>
<g transform="translate(108 76) rotate(164) scale(13 5)"><ellipse cx="0" cy="0" rx="1" ry="1" id="238" fill="rgb(84,116,162)" fill-opacity="0.501961" /></g>
<g transform="translate(33 83) rotate(41) scale(2 1)"><ellipse cx="0" cy="0" rx="1" ry="1" id="239" fill="rgb(44,65,93)" fill-opacity="0.501961" /></g>
<g transform="translate(41 68) rotate(360) scale(1 1)"><ellipse cx="0" cy="0" rx="1" ry="1" id="240" fill="rgb(0,0,0)" fill-opacity="0.501961" /></g>
<circle cx="52" cy="17" r="3" id="241" fill="rgb(26,49,88)" fill-opacity="0.501961" />
<circle cx="224" cy="93" r="6" id="242" fill="rgb(29,81,115)" fill-opacity="0.501961" />
<ellipse cx="102" cy="61" rx="12" ry="1" id="243" fill="rgb(226,234,244)" fill-opacity="0.501961" />
<ellipse cx="115" cy="56" rx="5" ry="2" id="244" fill="rgb(197,203,208)" fill-opacity="0.501961" />
<g transform="translate(12 154) rotate(164) scale(26 4)"><ellipse cx="0" cy="0" rx="1" ry="1" id="245" fill="rgb(39,80,127)" fill-opacity="0.501961" /></g>
<circle cx="77" cy="71" r="5" id="246" fill="rgb(227,234,243)" fill-opacity="0.501961" />
<circle cx="213" cy="65" r="2" id="247" fill="rgb(0,0,0)" fill-opacity="0.501961" />
<g transform="translate(19 80) rotate(290) scale(7 9)"><ellipse cx="0" cy="0" rx="1" ry="1" id="248" fill="rgb(218,229,242)" fill-opacity="0.501961" /></g>
<g transform="translate(92 102) rotate(3) scale(9 3)"><ellipse cx="0" cy="0" rx="1" ry="1" id="249" fill="rgb(120,153,168)" fill-opacity="0.501961" /></g>
<ellipse cx="94" cy="50" rx="19" ry="2" id="250" fill="rgb(116,139,168)" fill-opacity="0.501961" />
<ellipse cx="179" cy="68" rx="6" ry="2" id="251" fill="rgb(225,232,247)" fill-opacity="0.501961" />
<circle cx="187" cy="53" r="2" id="252" fill="rgb(33,66,101)" fill-opacity="0.501961" />
<ellipse cx="87" cy="65" rx="17" ry="2" id="253" fill="rgb(176,194,209)" fill-opacity="0.501961" />
<g transform="translate(4 82) rotate(268) scale(5 26)"><ellipse cx="0" cy="0" rx="1" ry="1" id="254" fill="rgb(218,228,243)" fill-opacity="0.501961" /></g>
<circle cx="94" cy="39" r="3" id="255" fill="rgb(90,114,142)" fill-opacity="0.501961" />
<circle cx="6" cy="42" r="5" id="256" fill="rgb(104,131,169)" fill-opacity="0.501961" />
<g transform="translate(37 51) rotate(326) scale(1 24)"><ellipse cx="0" cy="0" rx="1" ry="1" id="257" fill="rgb(173,194,220)" fill-opacity="0.501961" /></g>
<ellipse cx="15" cy="90" rx="6" ry="1" id="258" fill="rgb(0,23,72)" fill-opacity="0.501961" />
<g transform="translate(239 29) rotate(255) scale(2 4)"><ellipse cx="0" cy="0" rx="1" ry="1" id="259" fill="rgb(54,73,104)" fill-opacity="0.501961" /></g>
<ellipse cx="85" cy="93" rx="33" ry="5" id="260" fill="rgb(156,183,195)" fill-opacity="0.501961" />
<circle cx="239" cy="53" r="2" id="261" fill="rgb(17,35,64)" fill-opacity="0.501961" />
<ellipse cx="96" cy="83" rx="7" ry="3" id="262" fill="rgb(58,95,141)" fill-opacity="0.501961" />
<g transform="translate(234 70) rotate(291) scale(1 6)"><ellipse cx="0" cy="0" rx="1" ry="1" id="263" fill="rgb(84,98,115)" fill-opacity="0.501961" /></g>
<ellipse cx="236" cy="47" rx="6" ry="5" id="264" fill="rgb(209,224,243)" fill-opacity="0.501961" />
<ellipse cx="228" cy="54" rx="9" ry="1" id="265" fill="rgb(28,51,84)" fill-opacity="0.501961" />
<ellipse cx="12" cy="69" rx="5" ry="2" id="266" fill="rgb(236,249,255)" fill-opacity="0.501961" />
<g transform="translate(189 63) rotate(11) scale(15 2)"><ellipse cx="0" cy="0" rx="1" ry="1" id="267" fill="rgb(197,213,235)" fill-opacity="0.501961" /></g>
<ellipse cx="56" cy="71" rx="14" ry="1" id="268" fill="rgb(54,74,98)" fill-opacity="0.501961" />
<circle cx="64" cy="6" r="3" id="269" fill="rgb(99,121,146)" fill-opacity="0.501961" />
<g transform="translate(208 96) rotate(253) scale(3 16)"><ellipse cx="0" cy="0" rx="1" ry="1" id="270" fill="rgb(79,117,133)" fill-opacity="0.501961" /></g>
<g transform="translate(114 46) rotate(266) scale(2 30)"><ellipse cx="0" cy="0" rx="1" ry="1" id="271" fill="rgb(183,195,211)" fill-opacity="0.501961" /></g>
<g transform="translate(82 63) rotate(329) scale(6 2)"><ellipse cx="0" cy="0" rx="1" ry="1" id="272" fill="rgb(108,133,163)" fill-opacity="0.501961" /></g>
<circle cx="87" cy="77" r="4" id="273" fill="rgb(239,246,255)" fill-opacity="0.501961" />
<g transform="translate(61 56) rotate(219) scale(1 22)"><ellipse cx="0" cy="0" rx="1" ry="1" id="274" fill="rgb(158,179,207)" fill-opacity="0.501961" /></g>
<circle cx="215" cy="65" r="1" id="275" fill="rgb(0,0,0)" fill-opacity="0.501961" />
<ellipse cx="238" cy="36" rx="14" ry="7" id="276" fill="rgb(148,171,205)" fill-opacity="0.501961" />
<ellipse cx="18" cy="95" rx="43" ry="3" id="277" fill="rgb(177,199,214)" fill-opacity="0.501961" />
<ellipse cx="210" cy="159" rx="54" ry="1" id="278" fill="rgb(189,207,224)" fill-opacity="0.501961" />
<g transform="translate(240 37) rotate(123) scale(34 2)"><ellipse cx="0" cy="0" rx="1" ry="1" id="279" fill="rgb(168,190,218)" fill-opacity="0.501961" /></g>
<ellipse cx="39" cy="82" rx="3" ry="2" id="280" fill="rgb(0,0,24)" fill-opacity="0.501961" />
<circle cx="224" cy="55" r="2" id="281" fill="rgb(0,9,33)" fill-opacity="0.501961" />
<ellipse cx="253" cy="71" rx="24" ry="3" id="282" fill="rgb(184,200,222)" fill-opacity="0.501961" />
<circle cx="10" cy="64" r="1" id="283" fill="rgb(0,0,40)" fill-opacity="0.501961" />
<g transform="translate(238 94) rotate(170) scale(20 2)"><ellipse cx="0" cy="0" rx="1" ry="1" id="284" fill="rgb(2,40,78)" fill-opacity="0.501961" /></g>
<circle cx="40" cy="72" r="2" id="285" fill="rgb(161,180,207)" fill-opacity="0.501961" />
<ellipse cx="70" cy="76" rx="3" ry="2" id="286" fill="rgb(55,71,99)" fill-opacity="0.501961" />
<g transform="translate(2 56) rotate(170) scale(21 1)"><ellipse cx="0" cy="0" rx="1" ry="1" id="287" fill="rgb(192,210,237)" fill-opacity="0.501961" /></g>
<circle cx="37" cy="62" r="1" id="288" fill="rgb(0,17,54)" fill-opacity="0.501961" />
<circle cx="40" cy="99" r="3" id="289" fill="rgb(82,119,152)" fill-opacity="0.501961" />
<ellipse cx="34" cy="33" rx="7" ry="22" id="290" fill="rgb(153,174,204)" fill-opacity="0.501961" />
<circle cx="13" cy="11" r="10" id="291" fill="rgb(151,175,213)" fill-opacity="0.501961" />
<g transform="translate(196 24) rotate(39) scale(1 5)"><ellipse cx="0" cy="0" rx="1" ry="1" id="292" fill="rgb(72,96,126)" fill-opacity="0.501961" /></g>
<ellipse cx="139" cy="60" rx="5" ry="2" id="293" fill="rgb(65,91,128)" fill-opacity="0.501961" />
<g transform="translate(85 139) rotate(84) scale(7 28)"><ellipse cx="0" cy="0" rx="1" ry="1" id="294" fill="rgb(110,144,173)" fill-opacity="0.501961" /></g>
<circle cx="18" cy="68" r="1" id="295" fill="rgb(0,3,24)" fill-opacity="0.501961" />
<circle cx="208" cy="26" r="3" id="296" fill="rgb(199,215,232)" fill-opacity="0.501961" />
<ellipse cx="2" cy="72" rx="7" ry="2" id="297" fill="rgb(255,255,255)" fill-opacity="0.501961" />
<ellipse cx="223" cy="68" rx="16" ry="1" id="298" fill="rgb(219,234,249)" fill-opacity="0.501961" />
<circle cx="238" cy="18" r="2" id="299" fill="rgb(6,27,68)" fill-opacity="0.501961" />
<g transform="translate(101 27) rotate(1) scale(2 13)"><ellipse cx="0" cy="0" rx="1" ry="1" id="300" fill="rgb(245,247,254)" fill-opacity="0.501961" /></g>
<circle cx="210" cy="51" r="2" id="301" fill="rgb(59,87,118)" fill-opacity="0.501961" />
<circle cx="102" cy="58" r="3" id="302" fill="rgb(219,224,234)" fill-opacity="0.501961" />
<g transform="translate(235 9) rotate(208) scale(5 6)"><ellipse cx="0" cy="0" rx="1" ry="1" id="303" fill="rgb(48,81,123)" fill-opacity="0.501961" /></g>
<g transform="translate(34 129) rotate(167) scale(38 1)"><ellipse cx="0" cy="0" rx="1" ry="1" id="304" fill="rgb(121,153,179)" fill-opacity="0.501961" /></g>
<g transform="translate(131 35) rotate(25) scale(3 6)"><ellipse cx="0" cy="0" rx="1" ry="1" id="305" fill="rgb(108,135,166)" fill-opacity="0.501961" /></g>
<circle cx="63" cy="76" r="1" id="306" fill="rgb(0,0,0)" fill-opacity="0.501961" />
<circle cx="255" cy="49" r="1" id="307" fill="rgb(0,0,12)" fill-opacity="0.501961" />
<ellipse cx="182" cy="106" rx="9" ry="6" id="308" fill="rgb(161,189,187)" fill-opacity="0.501961" />
<circle cx="213" cy="53" r="1" id="309" fill="rgb(0,0,31)" fill-opacity="0.501961" />
<g transform="translate(248 60) rotate(346) scale(5 1)"><ellipse cx="0" cy="0" rx="1" ry="1" id="310" fill="rgb(51,87,129)" fill-opacity="0.501961" /></g>
<ellipse cx="154" cy="23" rx="13" ry="4" id="311" fill="rgb(142,165,196)" fill-opacity="0.501961" />
<g transform="translate(35 70) rotate(29) scale(4 4)"><ellipse cx="0" cy="0" rx="1" ry="1" id="312" fill="rgb(235,242,255)" fill-opacity="0.501961" /></g>
<circle cx="218" cy="24" r="2" id="313" fill="rgb(19,40,73)" fill-opacity="0.501961" />
<ellipse cx="57" cy="25" rx="4" ry="2" id="314" fill="rgb(7,31,72)" fill-opacity="0.501961" />
<circle cx="61" cy="31" r="4" id="315" fill="rgb(84,114,155)" fill-opacity="0.501961" />
<circle cx="238" cy="66" r="2" id="316" fill="rgb(0,7,20)" fill-opacity="0.501961" />
<ellipse cx="224" cy="155" rx="38" ry="1" id="317" fill="rgb(171,179,192)" fill-opacity="0.501961" />
<ellipse cx="198" cy="131" rx="32" ry="4" id="318" fill="rgb(186,207,225)" fill-opacity="0.501961" />
<ellipse cx="97" cy="48" rx="2" ry="7" id="319" fill="rgb(115,129,148)" fill-opacity="0.501961" />
<circle cx="218" cy="55" r="4" id="320" fill="rgb(144,172,206)" fill-opacity="0.501961" />
<circle cx="230" cy="103" r="6" id="321" fill="rgb(125,166,198)" fill-opacity="0.501961" />
<g transform="translate(213 43) rotate(121) scale(3 4)"><ellipse cx="0" cy="0" rx="1" ry="1" id="322" fill="rgb(213,225,242)" fill-opacity="0.501961" /></g>
<ellipse cx="232" cy="16" rx="6" ry="3" id="323" fill="rgb(42,67,109)" fill-opacity="0.501961" />
<g transform="translate(130 111) rotate(272) scale(4 14)"><ellipse cx="0" cy="0" rx="1" ry="1" id="324" fill="rgb(99,133,152)" fill-opacity="0.501961" /></g>
<ellipse cx="117" cy="51" rx="6" ry="3" id="325" fill="rgb(59,79,115)" fill-opacity="0.501961" />
<ellipse cx="86" cy="71" rx="3" ry="1" id="326" fill="rgb(242,255,255)" fill-opacity="0.501961" />
<ellipse cx="22" cy="72" rx="5" ry="2" id="327" fill="rgb(37,54,73)" fill-opacity="0.501961" />
<ellipse cx="235" cy="57" rx="9" ry="3" id="328" fill="rgb(193,211,237)" fill-opacity="0.501961" />
<circle cx="38" cy="74" r="1" id="329" fill="rgb(0,15,47)" fill-opacity="0.501961" />
<circle cx="44" cy="69" r="3" id="330" fill="rgb(0,8,38)" fill-opacity="0.501961" />
<circle cx="55" cy="10" r="5" id="331" fill="rgb(133,153,177)" fill-opacity="0.501961" />
<ellipse cx="124" cy="11" rx="11" ry="21" id="332" fill="rgb(249,249,254)" fill-opacity="0.501961" />
<g transform="translate(121 49) rotate(89) scale(1 25)"><ellipse cx="0" cy="0" rx="1" ry="1" id="333" fill="rgb(117,136,163)" fill-opacity="0.501961" /></g>
<circle cx="223" cy="30" r="6" id="334" fill="rgb(172,192,220)" fill-opacity="0.501961" />
<ellipse cx="9" cy="114" rx="17" ry="5" id="335" fill="rgb(207,222,237)" fill-opacity="0.501961" />
<circle cx="49" cy="64" r="2" id="336" fill="rgb(50,72,101)" fill-opacity="0.501961" />
<g transform="translate(65 83) rotate(167) scale(17 4)"><ellipse cx="0" cy="0" rx="1" ry="1" id="337" fill="rgb(225,234,249)" fill-opacity="0.501961" /></g>
<g transform="translate(143 66) rotate(84) scale(3 7)"><ellipse cx="0" cy="0" rx="1" ry="1" id="338" fill="rgb(223,231,243)" fill-opacity="0.501961" /></g>
<g transform="translate(59 71) rotate(172) scale(2 10)"><ellipse cx="0" cy="0" rx="1" ry="1" id="339" fill="rgb(172,193,219)" fill-opacity="0.501961" /></g>
<ellipse cx="34" cy="76" rx="12" ry="2" id="340" fill="rgb(185,203,222)" fill-opacity="0.501961" />
<circle cx="54" cy="54" r="3" id="341" fill="rgb(70,90,126)" fill-opacity="0.501961" />
<g transform="translate(146 0) rotate(225) scale(14 3)"><ellipse cx="0" cy="0" rx="1" ry="1" id="342" fill="rgb(252,251,255)" fill-opacity="0.501961" /></g>
<circle cx="12" cy="58" r="3" id="343" fill="rgb(94,124,167)" fill-opacity="0.501961" />
<circle cx="90" cy="56" r="8" id="344" fill="rgb(168,186,209)" fill-opacity="0.501961" />
<circle cx="158" cy="16" r="3" id="345" fill="rgb(221,225,234)" fill-opacity="0.501961" />
<ellipse cx="94" cy="72" rx="14" ry="1" id="346" fill="rgb(65,96,141)" fill-opacity="0.501961" />
<ellipse cx="231" cy="81" rx="8" ry="2" id="347" fill="rgb(112,152,202)" fill-opacity="0.501961" />
<ellipse cx="202" cy="68" rx="2" ry="1" id="348" fill="rgb(42,50,64)" fill-opacity="0.501961" />
<ellipse cx="81" cy="23" rx="5" ry="6" id="349" fill="rgb(132,148,168)" fill-opacity="0.501961" />
<ellipse cx="35" cy="83" rx="2" ry="2" id="350" fill="rgb(4,23,43)" fill-opacity="0.501961" />
<ellipse cx="242" cy="68" rx="1" ry="1" id="351" fill="rgb(0,0,0)" fill-opacity="0.501961" />
<ellipse cx="182" cy="44" rx="5" ry="19" id="352" fill="rgb(146,168,197)" fill-opacity="0.501961" />
<ellipse cx="44" cy="60" rx="2" ry="7" id="353" fill="rgb(185,203,226)" fill-opacity="0.501961" />
<circle cx="53" cy="4" r="3" id="354" fill="rgb(49,77,108)" fill-opacity="0.501961" />
<circle cx="199" cy="54" r="1" id="355" fill="rgb(30,53,76)" fill-opacity="0.501961" />
<g transform="translate(42 81) rotate(148) scale(3 2)"><ellipse cx="0" cy="0" rx="1" ry="1" id="356" fill="rgb(22,40,66)" fill-opacity="0.501961" /></g>
<circle cx="37" cy="79" r="3" id="357" fill="rgb(84,127,170)" fill-opacity="0.501961" />
<g transform="translate(73 118) rotate(266) scale(3 22)"><ellipse cx="0" cy="0" rx="1" ry="1" id="358" fill="rgb(158,183,196)" fill-opacity="0.501961" /></g>
<circle cx="128" cy="83" r="6" id="359" fill="rgb(113,147,163)" fill-opacity="0.501961" />
<circle cx="0" cy="33" r="3" id="360" fill="rgb(61,92,137)" fill-opacity="0.501961" />
<circle cx="212" cy="64" r="1" id="361" fill="rgb(0,0,10)" fill-opacity="0.501961" />
<ellipse cx="100" cy="68" rx="10" ry="2" id="362" fill="rgb(38,75,122)" fill-opacity="0.501961" />
<circle cx="101" cy="18" r="17" id="363" fill="rgb(244,245,252)" fill-opacity="0.501961" />
<circle cx="242" cy="65" r="2" id="364" fill="rgb(187,208,242)" fill-opacity="0.501961" />
<circle cx="104" cy="117" r="9" id="365" fill="rgb(112,144,168)" fill-opacity="0.501961" />
<g transform="translate(200 11) rotate(158) scale(22 1)"><ellipse cx="0" cy="0" rx="1" ry="1" id="366" fill="rgb(160,182,210)" fill-opacity="0.501961" /></g>
<g transform="translate(124 142) rotate(254) scale(6 22)"><ellipse cx="0" cy="0" rx="1" ry="1" id="367" fill="rgb(194,219,234)" fill-opacity="0.501961" /></g>
<g transform="translate(60 105) rotate(179) scale(28 3)"><ellipse cx="0" cy="0" rx="1" ry="1" id="368" fill="rgb(166,191,203)" fill-opacity="0.501961" /></g>
<ellipse cx="68" cy="158" rx="26" ry="3" id="369" fill="rgb(52,92,129)" fill-opacity="0.501961" />
<g transform="translate(255 15) rotate(166) scale(9 4)"><ellipse cx="0" cy="0" rx="1" ry="1" id="370" fill="rgb(128,158,196)" fill-opacity="0.501961" /></g>
<ellipse cx="0" cy="15" rx="2" ry="9" id="371" fill="rgb(67,95,137)" fill-opacity="0.501961" />
<g transform="translate(45 147) rotate(311) scale(32 5)"><ellipse cx="0" cy="0" rx="1" ry="1" id="372" fill="rgb(82,122,160)" fill-opacity="0.501961" /></g>
<ellipse cx="233" cy="69" rx="2" ry="1" id="373" fill="rgb(0,0,0)" fill-opacity="0.501961" />
<ellipse cx="161" cy="70" rx="8" ry="4" id="374" fill="rgb(213,226,244)" fill-opacity="0.501961" />
<circle cx="40" cy="59" r="1" id="375" fill="rgb(55,76,94)" fill-opacity="0.501961" />
<g transform="translate(46 8) rotate(147) scale(5 1)"><ellipse cx="0" cy="0" rx="1" ry="1" id="376" fill="rgb(54,80,115)" fill-opacity="0.501961" /></g>
<ellipse cx="92" cy="62" rx="7" ry="5" id="377" fill="rgb(191,207,223)" fill-opacity="0.501961" />
<ellipse cx="66" cy="50" rx="1" ry="28" id="378" fill="rgb(111,134,164)" fill-opacity="0.501961" />
<g transform="translate(33 31) rotate(41) scale(4 6)"><ellipse cx="0" cy="0" rx="1" ry="1" id="379" fill="rgb(127,151,186)" fill-opacity="0.501961" /></g>
<g transform="translate(73 0) rotate(113) scale(16 4)"><ellipse cx="0" cy="0" rx="1" ry="1" id="380" fill="rgb(241,243,245)" fill-opacity="0.501961" /></g>
<circle cx="240" cy="63" r="1" id="381" fill="rgb(0,5,24)" fill-opacity="0.501961" />
<ellipse cx="109" cy="90" rx="11" ry="6" id="382" fill="rgb(146,173,186)" fill-opacity="0.501961" />
<ellipse cx="164" cy="3" rx="7" ry="7" id="383" fill="rgb(154,175,200)" fill-opacity="0.501961" />
<circle cx="181" cy="89" r="11" id="384" fill="rgb(151,180,177)" fill-opacity="0.501961" />
<ellipse cx="243" cy="83" rx="4" ry="2" id="385" fill="rgb(93,140,184)" fill-opacity="0.501961" />
<g transform="translate(197 92) rotate(240) scale(5 17)"><ellipse cx="0" cy="0" rx="1" ry="1" id="386" fill="rgb(118,153,154)" fill-opacity="0.501961" /></g>
<circle cx="24" cy="58" r="3" id="387" fill="rgb(52,78,119)" fill-opacity="0.501961" />
<ellipse cx="231" cy="62" rx="2" ry="4" id="388" fill="rgb(123,142,163)" fill-opacity="0.501961" />
</svg>